<svg width="320" height="320" viewBox="0 0 320 320" fill="none" xmlns="http://www.w3.org/2000/svg">
<path d="M0 7.99999C0 3.58171 3.58172 0 8 0H312C316.418 0 320 3.58172 320 8V320H0V7.99999Z" fill="#BCBCBC"/>
<path d="M152.5 185H167.5C180 185 185 180 185 167.5V152.5C185 140 180 135 167.5 135H152.5C140 135 135 140 135 152.5V167.5C135 180 140 185 152.5 185Z" stroke="white" stroke-width="3" stroke-linecap="round" stroke-linejoin="round"/>
<path d="M136.675 177.375L149 169.1C150.975 167.775 153.825 167.925 155.6 169.45L156.425 170.175C158.375 171.85 161.525 171.85 163.475 170.175L173.875 161.25C175.825 159.575 178.975 159.575 180.925 161.25L185 164.75M152.5 155C153.826 155 155.098 154.473 156.035 153.536C156.973 152.598 157.5 151.326 157.5 150C157.5 148.674 156.973 147.402 156.035 146.464C155.098 145.527 153.826 145 152.5 145C151.174 145 149.902 145.527 148.964 146.464C148.027 147.402 147.5 148.674 147.5 150C147.5 151.326 148.027 152.598 148.964 153.536C149.902 154.473 151.174 155 152.5 155Z" stroke="white" stroke-width="3" stroke-linecap="round" stroke-linejoin="round"/>
</svg>
