<svg width="60" height="59" viewBox="0 0 60 59" fill="none" xmlns="http://www.w3.org/2000/svg">
<path d="M22.5 54.0837H37.5C50 54.0837 55 49.167 55 36.8753V22.1253C55 9.83366 50 4.91699 37.5 4.91699H22.5C10 4.91699 5 9.83366 5 22.1253V36.8753C5 49.167 10 54.0837 22.5 54.0837Z" stroke="white" stroke-width="3" stroke-linecap="round" stroke-linejoin="round"/>
<path d="M6.6748 46.5854L18.9998 38.4483C20.9748 37.1454 23.8248 37.2929 25.5998 38.7925L26.4248 39.5054C28.3748 41.1525 31.5248 41.1525 33.4748 39.5054L43.8748 30.7292C45.8248 29.0821 48.9748 29.0821 50.9248 30.7292L54.9998 34.1708M22.4998 24.5833C23.8259 24.5833 25.0977 24.0653 26.0353 23.1433C26.973 22.2212 27.4998 20.9706 27.4998 19.6667C27.4998 18.3627 26.973 17.1121 26.0353 16.1901C25.0977 15.268 23.8259 14.75 22.4998 14.75C21.1737 14.75 19.902 15.268 18.9643 16.1901C18.0266 17.1121 17.4998 18.3627 17.4998 19.6667C17.4998 20.9706 18.0266 22.2212 18.9643 23.1433C19.902 24.0653 21.1737 24.5833 22.4998 24.5833Z" stroke="white" stroke-width="3" stroke-linecap="round" stroke-linejoin="round"/>
</svg>
