<?xml version="1.0" ?><svg height="24" id="svg958" version="1.1" viewBox="0 0 6.3499999 6.3500002" width="24" xmlns="http://www.w3.org/2000/svg" xmlns:cc="http://creativecommons.org/ns#" xmlns:dc="http://purl.org/dc/elements/1.1/" xmlns:inkscape="http://www.inkscape.org/namespaces/inkscape" xmlns:rdf="http://www.w3.org/1999/02/22-rdf-syntax-ns#" xmlns:sodipodi="http://sodipodi.sourceforge.net/DTD/sodipodi-0.dtd" xmlns:svg="http://www.w3.org/2000/svg"><defs id="defs952"/><g id="layer1"><path d="M 1.5856425,0.79421825 V 1.0577163 H 0.79277259 c -0.146148,5.819e-4 -0.264159,0.1194736 -0.263601,0.2655647 v 4.2314692 c -8.47e-4,0.1462924 0.11725,0.2654978 0.263601,0.2660812 H 5.5551606 C 5.7023194,5.821387 5.8216775,5.7018504 5.8208285,5.5547502 V 1.323281 C 5.8213845,1.1763822 5.7021165,1.0571563 5.5551606,1.0577163 h -0.79287 V 0.79421825 c -0.0046,-0.3554151 -0.533567,-0.3513831 -0.5297861,0 V 1.0577163 H 2.1149115 V 0.79421825 c 5.451e-4,-0.3536541 -0.52862,-0.3531411 -0.529269,0 z M 1.0584406,1.5867791 h 0.5272019 v 0.2660812 c 0,0.3539807 0.529269,0.3489553 0.529269,0 V 1.5867791 h 2.117593 v 0.2660812 c 0,0.3571489 0.5297861,0.3487308 0.5297861,0 V 1.5867791 h 0.529269 v 0.7951442 h -4.233119 z m 0,1.3221405 h 4.233119 V 5.291252 h -4.233119 z m 0.5272019,0.2655646 c -0.3299719,0 -0.3510829,0.5295794 0,0.5295794 h 0.529269 c 0.360394,5.557e-4 0.368686,-0.5284972 0,-0.5295794 z m 1.324723,0 c -0.352377,0.00103 -0.360659,0.530147 0,0.5295794 h 0.529269 c 0.354453,5.557e-4 0.3751231,-0.5284708 0,-0.5295794 z m 1.322139,0 c -0.347477,0.00102 -0.351613,0.5301343 0,0.5295794 h 0.5297861 c 0.3507978,0 0.3712498,-0.5284832 0,-0.5295794 z m -2.646862,1.0586421 c -0.345646,0 -0.3456439,0.529063 0,0.529063 h 0.529269 c 0.347176,9.525e-4 0.358879,-0.5282872 0,-0.529063 z m 1.324723,0 c -0.36534,0 -0.359107,0.529063 0,0.529063 h 0.529269 c 0.339507,9.525e-4 0.345395,-0.529063 0,-0.529063 z m 1.322139,0 c -0.3524811,7.673e-4 -0.3525189,0.529063 0,0.529063 h 0.5297861 c 0.3504969,9.789e-4 0.3638629,-0.5282719 0,-0.529063 z" id="path2546" style="color:#000000;font-style:normal;font-variant:normal;font-weight:normal;font-stretch:normal;font-size:medium;line-height:normal;font-family:sans-serif;font-variant-ligatures:normal;font-variant-position:normal;font-variant-caps:normal;font-variant-numeric:normal;font-variant-alternates:normal;font-variant-east-asian:normal;font-feature-settings:normal;font-variation-settings:normal;text-indent:0;text-align:start;text-decoration:none;text-decoration-line:none;text-decoration-style:solid;text-decoration-color:#000000;letter-spacing:normal;word-spacing:normal;text-transform:none;writing-mode:lr-tb;direction:ltr;text-orientation:mixed;dominant-baseline:auto;baseline-shift:baseline;text-anchor:start;white-space:normal;shape-padding:0;shape-margin:0;inline-size:0;clip-rule:nonzero;display:inline;overflow:visible;visibility:visible;opacity:1;isolation:auto;mix-blend-mode:normal;color-interpolation:sRGB;color-interpolation-filters:linearRGB;solid-color:#000000;solid-opacity:1;vector-effect:none;fill:#000000;fill-opacity:1;fill-rule:nonzero;stroke:none;stroke-width:0.529167;stroke-linecap:round;stroke-linejoin:round;stroke-miterlimit:4;stroke-dasharray:none;stroke-dashoffset:0;stroke-opacity:1;color-rendering:auto;image-rendering:auto;shape-rendering:auto;text-rendering:auto;enable-background:accumulate;stop-color:#000000;stop-opacity:1"/></g></svg>