<svg width="99" height="22" viewBox="0 0 99 22" fill="none" xmlns="http://www.w3.org/2000/svg">
<path d="M30.1655 0.0599996L24.3155 21H19.3655L15.4355 6.09L11.3255 21L6.40547 21.03L0.765469 0.0599996H5.26547L8.95547 16.32L13.2155 0.0599996H17.8955L21.9155 16.23L25.6355 0.0599996H30.1655ZM48.1779 6.54C48.1779 7.66 47.9079 8.71 47.3679 9.69C46.8479 10.67 46.0179 11.46 44.8779 12.06C43.7579 12.66 42.3379 12.96 40.6179 12.96H37.1079V21H32.9079V0.0599996H40.6179C42.2379 0.0599996 43.6179 0.34 44.7579 0.899999C45.8979 1.46 46.7479 2.23 47.3079 3.21C47.8879 4.19 48.1779 5.3 48.1779 6.54ZM40.4379 9.57C41.5979 9.57 42.4579 9.31 43.0179 8.79C43.5779 8.25 43.8579 7.5 43.8579 6.54C43.8579 4.5 42.7179 3.48 40.4379 3.48H37.1079V9.57H40.4379ZM67.8098 0.0599996L60.7298 13.71V21H56.5298V13.71L49.4198 0.0599996H54.1598L58.6598 9.63L63.1298 0.0599996H67.8098ZM98.2221 0.0599996L92.3721 21H87.4221L83.4921 6.09L79.3821 21L74.4621 21.03L68.8221 0.0599996H73.3221L77.0121 16.32L81.2721 0.0599996H85.9521L89.9721 16.23L93.6921 0.0599996H98.2221Z" fill="#FF9B25"/>
</svg>
