<svg width="26" height="25" viewBox="0 0 26 25" fill="none" xmlns="http://www.w3.org/2000/svg">
<path d="M12.6655 18.8598C10.8498 18.8598 9.10856 18.1898 7.82472 16.997C6.54087 15.8043 5.81962 14.1866 5.81962 12.4998C5.81962 10.8131 6.54087 9.19537 7.82472 8.00264C9.10856 6.80991 10.8498 6.13984 12.6655 6.13984C14.4811 6.13984 16.2224 6.80991 17.5062 8.00264C18.79 9.19537 19.5113 10.8131 19.5113 12.4998C19.5113 14.1866 18.79 15.8043 17.5062 16.997C16.2224 18.1898 14.4811 18.8598 12.6655 18.8598ZM11.5245 0.839844H13.8064V4.01984H11.5245V0.839844ZM11.5245 20.9798H13.8064V24.1598H11.5245V20.9798ZM2.9843 5.00458L4.59763 3.50574L7.01764 5.754L5.4043 7.25284L2.9843 5.00564V5.00458ZM18.3133 19.2457L19.9266 17.7468L22.3466 19.9951L20.7333 21.4939L18.3133 19.2457ZM20.7333 3.50468L22.3466 5.00458L19.9266 7.25284L18.3133 5.754L20.7333 3.50574V3.50468ZM5.4043 17.7468L7.01764 19.2457L4.59763 21.4939L2.9843 19.9951L5.4043 17.7468ZM25.2162 11.4398V13.5598H21.7932V11.4398H25.2162ZM3.53767 11.4398V13.5598H0.114746V11.4398H3.53767Z" fill="white"/>
</svg>
