<svg width="23" height="22" viewBox="0 0 23 22" fill="none" xmlns="http://www.w3.org/2000/svg">
<path d="M10.8912 0.900391C10.0917 1.59248 9.45045 2.42707 9.00568 3.35438C8.56092 4.2817 8.32176 5.28273 8.30248 6.29778C8.28321 7.31282 8.4842 8.32107 8.89348 9.26238C9.30275 10.2037 9.91192 11.0588 10.6846 11.7766C11.4574 12.4945 12.3778 13.0604 13.3911 13.4406C14.4044 13.8208 15.4897 14.0076 16.5823 13.9896C17.6749 13.9717 18.7525 13.7496 19.7507 13.3364C20.7489 12.9232 21.6473 12.3275 22.3923 11.5847C22.0472 16.8614 17.3318 21.0404 11.565 21.0404C5.57144 21.0404 0.713867 16.5278 0.713867 10.9608C0.713867 5.60352 5.2123 1.22294 10.8912 0.900391Z" fill="#FAFF00"/>
</svg>
