<svg width="30" height="30" viewBox="0 -2 20 20" fill="none" xmlns="http://www.w3.org/2000/svg">
<path d="M9 15.2367C8.7675 15.2367 8.5425 15.2067 8.355 15.1392C5.49 14.1567 0.9375 10.6692 0.9375 5.51672C0.9375 2.89172 3.06 0.761719 5.67 0.761719C6.9375 0.761719 8.1225 1.25672 9 2.14172C9.8775 1.25672 11.0625 0.761719 12.33 0.761719C14.94 0.761719 17.0625 2.89922 17.0625 5.51672C17.0625 10.6767 12.51 14.1567 9.645 15.1392C9.4575 15.2067 9.2325 15.2367 9 15.2367ZM5.67 1.88672C3.6825 1.88672 2.0625 3.51422 2.0625 5.51672C2.0625 10.6392 6.99 13.4892 8.7225 14.0817C8.8575 14.1267 9.15 14.1267 9.285 14.0817C11.01 13.4892 15.945 10.6467 15.945 5.51672C15.945 3.51422 14.325 1.88672 12.3375 1.88672C11.1975 1.88672 10.14 2.41922 9.4575 3.34172C9.2475 3.62672 8.7675 3.62672 8.5575 3.34172C7.86 2.41172 6.81 1.88672 5.67 1.88672Z" fill="#EC5354"/>
</svg>
