<svg width="139" height="29" viewBox="0 0 139 29" fill="none" xmlns="http://www.w3.org/2000/svg">
<path d="M41.4893 0.118358L34.5693 28.3184H24.9293L21.0493 11.0384L17.0893 28.3184H7.4493L0.609297 0.118358H9.0893L12.3693 19.3984L16.8093 0.118358H25.4093L29.7293 19.2384L33.0093 0.118358H41.4893ZM67.0962 9.51836C67.0962 11.225 66.6962 12.785 65.8962 14.1984C65.1228 15.585 63.9362 16.705 62.3362 17.5584C60.7628 18.385 58.8295 18.7984 56.5362 18.7984H52.6562V28.3184H44.8162V0.118358H56.5362C58.8028 0.118358 60.7228 0.518358 62.2962 1.31836C63.8962 2.11836 65.0962 3.22502 65.8962 4.63836C66.6962 6.05169 67.0962 7.67836 67.0962 9.51836ZM55.7762 12.5584C57.9895 12.5584 59.0962 11.545 59.0962 9.51836C59.0962 7.46502 57.9895 6.43836 55.7762 6.43836H52.6562V12.5584H55.7762ZM95.8859 0.118358L85.9659 19.3584V28.3184H78.0859V19.3584L68.1659 0.118358H77.1259L82.0859 10.9984L87.0459 0.118358H95.8859ZM138.013 0.118358L131.093 28.3184H121.453L117.573 11.0384L113.613 28.3184H103.973L97.1327 0.118358H105.613L108.893 19.3984L113.333 0.118358H121.933L126.253 19.2384L129.533 0.118358H138.013Z" fill="#343434"/>
<path d="M41.4893 0.118358L42.9461 0.475837L43.4019 -1.38164H41.4893V0.118358ZM34.5693 28.3184V29.8184H35.7457L36.0261 28.6758L34.5693 28.3184ZM24.9293 28.3184L23.4657 28.647L23.7288 29.8184H24.9293V28.3184ZM21.0493 11.0384L22.5129 10.7097L19.5872 10.7033L21.0493 11.0384ZM17.0893 28.3184V29.8184H18.2844L18.5514 28.6534L17.0893 28.3184ZM7.4493 28.3184L5.99157 28.6719L6.26963 29.8184H7.4493V28.3184ZM0.609297 0.118358V-1.38164H-1.29803L-0.848435 0.471935L0.609297 0.118358ZM9.0893 0.118358L10.5681 -0.133214L10.3557 -1.38164H9.0893V0.118358ZM12.3693 19.3984L10.8905 19.6499L13.831 19.735L12.3693 19.3984ZM16.8093 0.118358V-1.38164H15.6155L15.3476 -0.218267L16.8093 0.118358ZM25.4093 0.118358L26.8724 -0.212222L26.6082 -1.38164H25.4093V0.118358ZM29.7293 19.2384L28.2662 19.5689L31.2077 19.492L29.7293 19.2384ZM33.0093 0.118358V-1.38164H31.7447L31.5309 -0.13526L33.0093 0.118358ZM40.0325 -0.239122L33.1125 27.9609L36.0261 28.6758L42.9461 0.475837L40.0325 -0.239122ZM34.5693 26.8184H24.9293V29.8184H34.5693V26.8184ZM26.3929 27.9897L22.5129 10.7097L19.5857 11.367L23.4657 28.647L26.3929 27.9897ZM19.5872 10.7033L15.6272 27.9833L18.5514 28.6534L22.5114 11.3734L19.5872 10.7033ZM17.0893 26.8184H7.4493V29.8184H17.0893V26.8184ZM8.90703 27.9648L2.06703 -0.23522L-0.848435 0.471935L5.99157 28.6719L8.90703 27.9648ZM0.609297 1.61836H9.0893V-1.38164H0.609297V1.61836ZM7.61054 0.36993L10.8905 19.6499L13.8481 19.1468L10.5681 -0.133214L7.61054 0.36993ZM13.831 19.735L18.271 0.454982L15.3476 -0.218267L10.9076 19.0617L13.831 19.735ZM16.8093 1.61836H25.4093V-1.38164H16.8093V1.61836ZM23.9462 0.448937L28.2662 19.5689L31.1924 18.9078L26.8724 -0.212222L23.9462 0.448937ZM31.2077 19.492L34.4877 0.371975L31.5309 -0.13526L28.2509 18.9847L31.2077 19.492ZM33.0093 1.61836H41.4893V-1.38164H33.0093V1.61836ZM65.8962 14.1984L64.5908 13.4594L64.5861 13.4678L65.8962 14.1984ZM62.3362 17.5584L63.0339 18.8862L63.0421 18.8819L62.3362 17.5584ZM52.6562 18.7984V17.2984H51.1562V18.7984H52.6562ZM52.6562 28.3184V29.8184H54.1562V28.3184H52.6562ZM44.8162 28.3184H43.3162V29.8184H44.8162V28.3184ZM44.8162 0.118358V-1.38164H43.3162V0.118358H44.8162ZM62.2962 1.31836L61.6163 2.65547L61.6254 2.66L62.2962 1.31836ZM65.8962 4.63836L64.5908 5.37726L64.5908 5.37726L65.8962 4.63836ZM52.6562 6.43836V4.93836H51.1562V6.43836H52.6562ZM52.6562 12.5584H51.1562V14.0584H52.6562V12.5584ZM65.5962 9.51836C65.5962 10.9797 65.2566 12.2831 64.5908 13.4595L67.2016 14.9373C68.1357 13.2869 68.5962 11.4703 68.5962 9.51836H65.5962ZM64.5861 13.4678C63.9722 14.5685 63.0132 15.4973 61.6303 16.2348L63.0421 18.8819C64.8591 17.9128 66.2734 16.6015 67.2062 14.929L64.5861 13.4678ZM61.6385 16.2305C60.3337 16.916 58.6549 17.2984 56.5362 17.2984V20.2984C59.0041 20.2984 61.192 19.854 63.0339 18.8862L61.6385 16.2305ZM56.5362 17.2984H52.6562V20.2984H56.5362V17.2984ZM51.1562 18.7984V28.3184H54.1562V18.7984H51.1562ZM52.6562 26.8184H44.8162V29.8184H52.6562V26.8184ZM46.3162 28.3184V0.118358H43.3162V28.3184H46.3162ZM44.8162 1.61836H56.5362V-1.38164H44.8162V1.61836ZM56.5362 1.61836C58.6317 1.61836 60.3048 1.98859 61.6163 2.65544L62.976 -0.0187186C61.1408 -0.951871 58.974 -1.38164 56.5362 -1.38164V1.61836ZM61.6254 2.66C62.9868 3.34074 63.9525 4.2496 64.5908 5.37726L67.2016 3.89946C66.2399 2.20045 64.8055 0.895981 62.967 -0.0232822L61.6254 2.66ZM64.5908 5.37726C65.247 6.53659 65.5962 7.90231 65.5962 9.51836H68.5962C68.5962 7.4544 68.1453 5.56679 67.2016 3.89946L64.5908 5.37726ZM55.7762 14.0584C57.0829 14.0584 58.3428 13.762 59.2792 12.9046C60.2405 12.0243 60.5962 10.7986 60.5962 9.51836H57.5962C57.5962 10.2648 57.3985 10.559 57.2532 10.6921C57.0829 10.848 56.6828 11.0584 55.7762 11.0584V14.0584ZM60.5962 9.51836C60.5962 8.2304 60.2438 6.99697 59.2863 6.1087C58.3501 5.24013 57.0873 4.93836 55.7762 4.93836V7.93836C56.6784 7.93836 57.0756 8.14992 57.246 8.30802C57.3952 8.44641 57.5962 8.75298 57.5962 9.51836H60.5962ZM55.7762 4.93836H52.6562V7.93836H55.7762V4.93836ZM51.1562 6.43836V12.5584H54.1562V6.43836H51.1562ZM52.6562 14.0584H55.7762V11.0584H52.6562V14.0584ZM95.8859 0.118358L97.2191 0.805757L98.3469 -1.38164H95.8859V0.118358ZM85.9659 19.3584L84.6326 18.671L84.4659 18.9944V19.3584H85.9659ZM85.9659 28.3184V29.8184H87.4659V28.3184H85.9659ZM78.0859 28.3184H76.5859V29.8184H78.0859V28.3184ZM78.0859 19.3584H79.5859V18.9944L79.4191 18.671L78.0859 19.3584ZM68.1659 0.118358V-1.38164H65.7048L66.8326 0.805757L68.1659 0.118358ZM77.1259 0.118358L78.4907 -0.503859L78.0906 -1.38164H77.1259V0.118358ZM82.0859 10.9984L80.721 11.6206L82.0859 14.6145L83.4507 11.6206L82.0859 10.9984ZM87.0459 0.118358V-1.38164H86.0812L85.681 -0.503859L87.0459 0.118358ZM94.5526 -0.569042L84.6326 18.671L87.2991 20.0458L97.2191 0.805757L94.5526 -0.569042ZM84.4659 19.3584V28.3184H87.4659V19.3584H84.4659ZM85.9659 26.8184H78.0859V29.8184H85.9659V26.8184ZM79.5859 28.3184V19.3584H76.5859V28.3184H79.5859ZM79.4191 18.671L69.4991 -0.569042L66.8326 0.805757L76.7526 20.0458L79.4191 18.671ZM68.1659 1.61836H77.1259V-1.38164H68.1659V1.61836ZM75.761 0.740574L80.721 11.6206L83.4507 10.3761L78.4907 -0.503859L75.761 0.740574ZM83.4507 11.6206L88.4107 0.740574L85.681 -0.503859L80.721 10.3761L83.4507 11.6206ZM87.0459 1.61836H95.8859V-1.38164H87.0459V1.61836ZM138.013 0.118358L139.47 0.475837L139.925 -1.38164H138.013V0.118358ZM131.093 28.3184V29.8184H132.269L132.55 28.6758L131.093 28.3184ZM121.453 28.3184L119.989 28.647L120.252 29.8184H121.453V28.3184ZM117.573 11.0384L119.036 10.7097L116.111 10.7033L117.573 11.0384ZM113.613 28.3184V29.8184H114.808L115.075 28.6534L113.613 28.3184ZM103.973 28.3184L102.515 28.6719L102.793 29.8184H103.973V28.3184ZM97.1327 0.118358V-1.38164H95.2254L95.675 0.471935L97.1327 0.118358ZM105.613 0.118358L107.091 -0.133214L106.879 -1.38164H105.613V0.118358ZM108.893 19.3984L107.414 19.6499L110.354 19.735L108.893 19.3984ZM113.333 0.118358V-1.38164H112.139L111.871 -0.218267L113.333 0.118358ZM121.933 0.118358L123.396 -0.212222L123.132 -1.38164H121.933V0.118358ZM126.253 19.2384L124.79 19.5689L127.731 19.492L126.253 19.2384ZM129.533 0.118358V-1.38164H128.268L128.054 -0.13526L129.533 0.118358ZM136.556 -0.239122L129.636 27.9609L132.55 28.6758L139.47 0.475837L136.556 -0.239122ZM131.093 26.8184H121.453V29.8184H131.093V26.8184ZM122.916 27.9897L119.036 10.7097L116.109 11.367L119.989 28.647L122.916 27.9897ZM116.111 10.7033L112.151 27.9833L115.075 28.6534L119.035 11.3734L116.111 10.7033ZM113.613 26.8184H103.973V29.8184H113.613V26.8184ZM105.43 27.9648L98.5905 -0.23522L95.675 0.471935L102.515 28.6719L105.43 27.9648ZM97.1327 1.61836H105.613V-1.38164H97.1327V1.61836ZM104.134 0.36993L107.414 19.6499L110.371 19.1468L107.091 -0.133214L104.134 0.36993ZM110.354 19.735L114.794 0.454982L111.871 -0.218267L107.431 19.0617L110.354 19.735ZM113.333 1.61836H121.933V-1.38164H113.333V1.61836ZM120.47 0.448937L124.79 19.5689L127.716 18.9078L123.396 -0.212222L120.47 0.448937ZM127.731 19.492L131.011 0.371975L128.054 -0.13526L124.774 18.9847L127.731 19.492ZM129.533 1.61836H138.013V-1.38164H129.533V1.61836Z" fill="#FF9B25"/>
</svg>
