<svg width="21" height="21" viewBox="0 0 21 21" fill="none" xmlns="http://www.w3.org/2000/svg">
<path d="M20.0832 20.0827L18.1665 18.166M10.0207 19.1243C11.2162 19.1243 12.4001 18.8889 13.5047 18.4313C14.6093 17.9738 15.6129 17.3032 16.4583 16.4578C17.3037 15.6124 17.9743 14.6088 18.4318 13.5042C18.8894 12.3996 19.1248 11.2158 19.1248 10.0202C19.1248 8.82461 18.8894 7.64074 18.4318 6.53617C17.9743 5.4316 17.3037 4.42796 16.4583 3.58256C15.6129 2.73716 14.6093 2.06656 13.5047 1.60903C12.4001 1.1515 11.2162 0.916016 10.0207 0.916016C7.6061 0.916016 5.29041 1.8752 3.58305 3.58256C1.87569 5.28993 0.916504 7.60561 0.916504 10.0202C0.916504 12.4348 1.87569 14.7504 3.58305 16.4578C5.29041 18.1652 7.6061 19.1243 10.0207 19.1243V19.1243Z" stroke="#9F9F9F" stroke-width="1.5" stroke-linecap="round" stroke-linejoin="round"/>
</svg>
