<svg fill="#acacac" width="18" height="18" viewBox="0 0 18 18"  xmlns="http://www.w3.org/2000/svg" class="sc-hjjlnc hEAEnl makerlog-card"><path d="M8.99963 3.37524C5.24963 3.37524 2.04713 5.70774 0.749634 9.00024C2.04713 12.2927 5.24963 14.6252 8.99963 14.6252C12.7496 14.6252 15.9521 12.2927 17.2496 9.00024C15.9521 5.70774 12.7496 3.37524 8.99963 3.37524ZM8.99963 12.7502C6.92963 12.7502 5.24963 11.0702 5.24963 9.00024C5.24963 6.93024 6.92963 5.25024 8.99963 5.25024C11.0696 5.25024 12.7496 6.93024 12.7496 9.00024C12.7496 11.0702 11.0696 12.7502 8.99963 12.7502ZM8.99963 6.75024C7.75463 6.75024 6.74963 7.75524 6.74963 9.00024C6.74963 10.2452 7.75463 11.2502 8.99963 11.2502C10.2446 11.2502 11.2496 10.2452 11.2496 9.00024C11.2496 7.75524 10.2446 6.75024 8.99963 6.75024Z"></path></svg>